<?xml version="1.0" encoding="UTF-8" standalone="no"?>
<svg
   xmlns:dc="http://purl.org/dc/elements/1.1/"
   xmlns:cc="http://creativecommons.org/ns#"
   xmlns:rdf="http://www.w3.org/1999/02/22-rdf-syntax-ns#"
   xmlns:svg="http://www.w3.org/2000/svg"
   xmlns="http://www.w3.org/2000/svg"
   xmlns:sodipodi="http://sodipodi.sourceforge.net/DTD/sodipodi-0.dtd"
   xmlns:inkscape="http://www.inkscape.org/namespaces/inkscape"
   id="placeholder"
   enable-background="new 0 0 200 200"
   xml:space="preserve"
   height="200px"
   viewBox="0 0 200 200"
   width="200px"
   version="1.1"
   y="0px"
   x="0px"
   inkscape:version="0.91 r13725"
   sodipodi:docname="placeholder_2.svg"><defs
     id="defs11" /><sodipodi:namedview
     pagecolor="#ffffff"
     bordercolor="#666666"
     borderopacity="1"
     objecttolerance="10"
     gridtolerance="10"
     guidetolerance="10"
     inkscape:pageopacity="0"
     inkscape:pageshadow="2"
     inkscape:window-width="1920"
     inkscape:window-height="1147"
     id="namedview9"
     showgrid="false"
     inkscape:zoom="1.18"
     inkscape:cx="-85.898487"
     inkscape:cy="104.23729"
     inkscape:window-x="-8"
     inkscape:window-y="-8"
     inkscape:window-maximized="1"
     inkscape:current-layer="placeholder" /><metadata
     id="metadata22"><rdf:RDF><cc:Work
         rdf:about=""><dc:format>image/svg+xml</dc:format><dc:type
           rdf:resource="http://purl.org/dc/dcmitype/StillImage" /><dc:title></dc:title></cc:Work></rdf:RDF></metadata><rect
     id="rect8"
     height="200"
     width="200"
     fill="#151925"
     style="fill:#b32727;fill-opacity:1" /><g
     id="g10"
     fill="#fff"><path
       id="path12"
       d="m58.268 67.168v65.664h83.465v-65.662h-83.462zm76.742 58.542h-69.62v-51.422h69.62v51.422z" /><polygon
       id="polygon14"
       points="69.132 120.17 83.48 105.09 88.857 107.42 105.82 89.358 112.5 97.346 115.51 95.527 131.81 120.17" /><circle
       id="circle16"
       cy="87.364"
       cx="85.708"
       r="6.267" /></g><path
     style="fill:#b32727;fill-opacity:1"
     d="m 0.54219339,99.745763 0,-99.57627143 99.57626661,0 99.57627,0 0,99.57627143 0,99.576267 -99.57627,0 -99.57626661,0 0,-99.576267 z m 141.52541661,0.423727 0,-33.050846 -41.94915,0 -41.949147,0 0,33.050846 0,33.05085 41.949147,0 41.94915,0 0,-33.05085 z"
     id="path4137"
     inkscape:connector-curvature="0" /><path
     style="fill:#b32727;fill-opacity:1"
     d="m 65.457445,100.16949 0,-25.423727 34.745765,0 34.74576,0 0,25.423727 0,25.42373 -34.74576,0 -34.745765,0 0,-25.42373 z m 66.101695,19.76321 c 0,-0.42409 -14.07886,-22.471674 -15.80891,-24.756853 -0.13851,-0.182945 -0.8525,0.16589 -1.58666,0.77519 -1.14773,0.952527 -1.83661,0.537597 -4.91438,-2.96005 l -3.57954,-4.067868 -8.380767,9.050319 c -6.086035,6.572262 -8.748761,8.894242 -9.724747,8.480312 -4.162498,-1.76541 -4.739665,-1.45634 -11.874034,6.35842 l -7.026232,7.6963 31.44764,0 c 17.29619,0 31.44763,-0.2591 31.44763,-0.57577 z M 90.192147,91.853347 c 0.786291,-0.78629 1.683275,-2.468749 1.993299,-3.738798 0.457204,-1.872991 0.06069,-2.812173 -2.099165,-4.972023 -2.248212,-2.248212 -3.084651,-2.578482 -5.371778,-2.121056 -3.416201,0.68324 -4.670992,1.938031 -5.354233,5.354233 -0.457425,2.287126 -0.127155,3.123566 2.121057,5.371778 2.15985,2.15985 3.099032,2.556368 4.972023,2.099164 1.270049,-0.310024 2.952508,-1.207008 3.738797,-1.993298 z"
     id="path4139"
     inkscape:connector-curvature="0" /></svg>